<svg width="427" height="518" viewBox="0 0 427 518" fill="none" xmlns="http://www.w3.org/2000/svg">
<path d="M214.026 2.26593C210.968 2.79893 205.091 3.77193 200.966 4.42693C191.264 5.96793 191.315 5.91292 190.635 15.5649C190.316 20.0919 189.603 30.3209 189.052 38.2959C187.5 60.7269 187.778 60.4069 159.966 71.7509C151.991 75.0039 144.035 78.4569 142.287 79.4239C139.437 80.9999 117.41 68.9069 112.966 63.3269C112.691 62.9819 110.891 61.6109 108.966 60.2809C107.041 58.9499 104.868 57.2819 104.138 56.5719C101.56 54.0689 99.0247 53.1929 97.2157 54.1809C95.2887 55.2329 75.6717 75.1619 69.5407 82.2959C67.4137 84.7709 62.9267 89.7209 59.5697 93.2959C43.7977 110.091 43.4427 110.867 48.5837 117.296C50.5637 119.771 56.0617 126.971 60.8027 133.296C65.5447 139.621 70.6687 146.146 72.1897 147.796C75.1077 150.96 75.5957 153.197 73.9937 156.06C73.0737 157.705 68.1967 168.151 62.0387 181.67C60.5037 185.039 58 188.5 54.9517 200.246C53.5 206.5 54.0427 207.959 43.4657 209.375C19.1267 212.632 4.97174 215.567 3.42874 217.678C0.929743 221.094 -0.257257 260.78 1.42874 284.525C2.39574 298.147 3.04474 299.201 11.2467 300.47C14.1177 300.914 19.3907 301.767 22.9657 302.366C34.5107 304.301 39.3617 305.074 44.7077 305.831C51.0727 306.732 51.1737 306.846 54.4367 316.813C55.8737 321.203 57.4807 325.808 58.0077 327.046C58.5347 328.284 59.3637 330.308 59.8497 331.546C60.3357 332.784 63.9387 340.321 67.8547 348.296C74.5157 361.857 76.8183 364.704 74.5 366.5C73.289 367.875 64.5547 378.371 63.1077 380.296C61.6607 382.221 60.2437 384.021 59.9577 384.296C59.6717 384.571 57.4257 387.271 54.9657 390.296C52.5057 393.321 50.2387 396.021 49.9267 396.296C48.4147 397.63 43.9657 404.102 43.9657 404.967C43.9657 406.303 52.8457 417.94 65.9557 433.786C71.1347 440.045 90 464 97.5157 465.296C104.5 465.5 132.477 442.393 133.472 441.293C137.25 439.17 140 438.5 143.516 440.241C145.64 441.293 156.784 447.654 176.04 457.347C188.455 463.597 187.95 462.753 189 478.983C191.63 519.595 189.438 518.009 242.466 517.653C269.212 517.473 266.348 522.788 267.197 471.752C267.197 423.5 267.197 471.752 267.197 423.5C259.64 422.96 242.015 421.042 236.966 419.792C235.591 419.451 232.441 418.699 229.966 418.121C200.479 411.226 167.3 390.917 145.966 366.702C139.779 359.679 127.966 343.399 127.966 341.895C127.966 341.614 126.711 339.227 125.178 336.59C103.979 300.143 99.3097 253.718 112.629 211.796C126.9 166.875 163.53 125.933 203.466 110.267C218.584 104.336 248.749 99.494 265.214 98C265.214 5.17593 265.214 98 265.214 5.17593C264.428 -0.298072 228.581 -0.795069 214.026 2.26593Z" fill="#1C4232"/>
<path d="M251.4 351.5C239.6 351.5 228.7 350.2 218.7 347.6C208.9 345 200.4 340.7 193.2 334.7C186 328.5 180.3 320.1 176.1 309.5C172.1 298.9 170.1 285.7 170.1 269.9C170.1 245.3 176.1 225.9 188.1 211.7C200.3 197.5 218.5 190.4 242.7 190.4C245.9 190.4 250.1 190.7 255.3 191.3C260.5 191.7 265.9 192.9 271.5 194.9C277.1 196.9 282.1 200.3 286.5 205.1L277.5 218.9V132.8H321.9V307.4C321.9 314.8 319.9 321.3 315.9 326.9C311.9 332.3 306.5 336.8 299.7 340.4C293.1 344 285.6 346.7 277.2 348.5C268.8 350.5 260.2 351.5 251.4 351.5ZM253.2 314C260.4 314 266.2 313.1 270.6 311.3C275.2 309.3 277.5 306.4 277.5 302.6V232.7C273.9 230.7 270 229.2 265.8 228.2C261.8 227 257.9 226.4 254.1 226.4C245.7 226.4 238.6 227.8 232.8 230.6C227 233.4 222.6 238.1 219.6 244.7C216.8 251.3 215.4 260.2 215.4 271.4C215.4 280.2 216.6 287.8 219 294.2C221.4 300.4 225.3 305.3 230.7 308.9C236.3 312.3 243.8 314 253.2 314ZM337.613 404.9V368.6C343.213 369.2 347.713 368.8 351.113 367.4C354.713 366 357.313 363.7 358.913 360.5C360.713 357.3 361.613 353.2 361.613 348.2V195.2H406.313L406.913 348.2C406.913 362.6 403.913 373.9 397.913 382.1C391.913 390.5 383.713 396.4 373.312 399.8C362.913 403.2 351.013 404.9 337.613 404.9ZM360.713 172.4V137.9H407.213V172.4H360.713Z" fill="#1C4232"/>
</svg>
